<svg version="1.2" xmlns="http://www.w3.org/2000/svg" viewBox="0 0 16 16" width="16" height="16">
	<title>cart-svg</title>
	<style>
		.s0 { fill: #ffffff } 
	</style>
	<path id="Layer" fill-rule="evenodd" class="s0" d="m0 1.5q0-0.1 0-0.2q0.1-0.1 0.1-0.2q0.1 0 0.2-0.1q0.1 0 0.2 0h1.5q0.1 0 0.2 0q0 0.1 0.1 0.1q0.1 0.1 0.1 0.1q0.1 0.1 0.1 0.2l0.4 1.6h11.6q0.1 0 0.2 0q0.1 0.1 0.2 0.2q0.1 0.1 0.1 0.2q0 0.1 0 0.2l-1.5 8q0 0.1-0.1 0.2q0 0-0.1 0.1q0 0-0.1 0.1q-0.1 0-0.2 0h-9q-0.1 0-0.2 0q-0.1-0.1-0.1-0.1q-0.1-0.1-0.1-0.1q-0.1-0.1-0.1-0.2l-1.5-8l-0.4-1.6h-1.1q-0.1 0-0.2 0q-0.1-0.1-0.2-0.1q0-0.1-0.1-0.2q0-0.1 0-0.2zm3.1 2.5l1.3 7h8.2l1.3-7zm3.3 8.6c0.4 0.4 0.6 0.9 0.6 1.4c0 0.5-0.2 1-0.6 1.4c-0.4 0.4-0.9 0.6-1.4 0.6c-0.5 0-1-0.2-1.4-0.6c-0.4-0.4-0.6-0.9-0.6-1.4c0-0.5 0.2-1 0.6-1.4c0.4-0.4 0.9-0.6 1.4-0.6c0.5 0 1 0.2 1.4 0.6zm7 0c0.4 0.4 0.6 0.9 0.6 1.4c0 0.5-0.2 1-0.6 1.4c-0.4 0.4-0.9 0.6-1.4 0.6c-0.5 0-1-0.2-1.4-0.6c-0.4-0.4-0.6-0.9-0.6-1.4c0-0.5 0.2-1 0.6-1.4c0.4-0.4 0.9-0.6 1.4-0.6c0.5 0 1 0.2 1.4 0.6zm-9.1 0.7q-0.3 0.3-0.3 0.7q0 0.4 0.3 0.7q0.3 0.3 0.7 0.3q0.4 0 0.7-0.3q0.3-0.3 0.3-0.7q0-0.4-0.3-0.7q-0.3-0.3-0.7-0.3q-0.4 0-0.7 0.3zm7 0q-0.3 0.3-0.3 0.7q0 0.4 0.3 0.7q0.3 0.3 0.7 0.3q0.4 0 0.7-0.3q0.3-0.3 0.3-0.7q0-0.4-0.3-0.7q-0.3-0.3-0.7-0.3q-0.4 0-0.7 0.3z" />
</svg>