<svg version="1.2" xmlns="http://www.w3.org/2000/svg" viewBox="0 0 16 16" width="16" height="16">
	<title>cart-plus-fill-svg</title>
	<style>
		.s0 { fill: #ffffff } 
	</style>
	<path id="Layer" fill-rule="evenodd" class="s0" d="m2 1q0.1 0 0.2 0q0 0.1 0.1 0.1q0.1 0.1 0.1 0.1q0.1 0.1 0.1 0.2l0.4 1.6h11.6q0.1 0 0.2 0q0.1 0.1 0.2 0.2q0.1 0.1 0.1 0.2q0 0.1 0 0.2l-1.5 8q0 0.1-0.1 0.2q0 0-0.1 0.1q0 0-0.1 0.1q-0.1 0-0.2 0h-1c0.5 0 1 0.2 1.4 0.6c0.4 0.4 0.6 0.9 0.6 1.4c0 0.5-0.2 1-0.6 1.4c-0.4 0.4-0.9 0.6-1.4 0.6c-0.5 0-1-0.2-1.4-0.6c-0.4-0.4-0.6-0.9-0.6-1.4c0-0.5 0.2-1 0.6-1.4c0.4-0.4 0.9-0.6 1.4-0.6h-7c0.5 0 1 0.2 1.4 0.6c0.4 0.4 0.6 0.9 0.6 1.4c0 0.5-0.2 1-0.6 1.4c-0.4 0.4-0.9 0.6-1.4 0.6c-0.5 0-1-0.2-1.4-0.6c-0.4-0.4-0.6-0.9-0.6-1.4c0-0.5 0.2-1 0.6-1.4c0.4-0.4 0.9-0.6 1.4-0.6h-1q-0.1 0-0.2 0q-0.1-0.1-0.1-0.1q-0.1-0.1-0.1-0.1q-0.1-0.1-0.1-0.2l-1.5-8l-0.4-1.6h-1.1q-0.2 0-0.4-0.1q-0.1-0.2-0.1-0.4q0-0.2 0.1-0.4q0.2-0.1 0.4-0.1zm3.7 12.3q-0.3-0.3-0.7-0.3q-0.4 0-0.7 0.3q-0.3 0.3-0.3 0.7q0 0.4 0.3 0.7q0.3 0.3 0.7 0.3q0.4 0 0.7-0.3q0.3-0.3 0.3-0.7q0-0.4-0.3-0.7zm7 0q-0.3-0.3-0.7-0.3q-0.4 0-0.7 0.3q-0.3 0.3-0.3 0.7q0 0.4 0.3 0.7q0.3 0.3 0.7 0.3q0.4 0 0.7-0.3q0.3-0.3 0.3-0.7q0-0.4-0.3-0.7zm-3.8-8.2q-0.2-0.1-0.4-0.1q-0.2 0-0.4 0.1q-0.1 0.2-0.1 0.4v1.5h-1.5q-0.2 0-0.4 0.1q-0.1 0.2-0.1 0.4q0 0.2 0.1 0.4q0.2 0.1 0.4 0.1h1.5v1.5q0 0.2 0.1 0.4q0.2 0.1 0.4 0.1q0.2 0 0.4-0.1q0.1-0.2 0.1-0.4v-1.5h1.5q0.2 0 0.4-0.1q0.1-0.2 0.1-0.4q0-0.2-0.1-0.4q-0.2-0.1-0.4-0.1h-1.5v-1.5q0-0.2-0.1-0.4z" />
</svg>