<svg version="1.2" xmlns="http://www.w3.org/2000/svg" viewBox="0 0 16 16" width="16" height="16">
	<title>funnel-fill-svg</title>
	<style>
		.s0 { fill: #ffffff } 
	</style>
	<path id="Layer" class="s0" d="m1.5 1.5q0-0.1 0-0.2q0.1-0.1 0.1-0.2q0.1 0 0.2-0.1q0.1 0 0.2 0h12q0.1 0 0.2 0q0.1 0.1 0.2 0.1q0 0.1 0.1 0.2q0 0.1 0 0.2v2q0 0 0 0.1q0 0 0 0.1q0 0-0.1 0.1q0 0 0 0l-4.4 4.9v4.8q0 0.1 0 0.2q0 0-0.1 0.1q0 0.1-0.1 0.1q-0.1 0-0.1 0.1l-3 1q-0.2 0-0.3 0q-0.1 0-0.2-0.1q-0.1-0.1-0.1-0.2q-0.1-0.1-0.1-0.2v-5.8l-4.4-4.9q0 0 0 0q-0.1-0.1-0.1-0.1q0-0.1 0-0.1q0-0.1 0-0.1z" />
</svg>