<svg version="1.2" xmlns="http://www.w3.org/2000/svg" viewBox="0 0 16 16" width="16" height="16">
	<title>person-admin-svg (1)-svg</title>
	<style>
		.s0 { fill: #ffffff } 
	</style>
	<path id="Layer" fill-rule="evenodd" class="s0" d="m3.9 7.1c-0.6-0.5-0.9-1.3-0.9-2.1 0-0.8 0.3-1.6 0.9-2.1 0.5-0.6 1.3-0.9 2.1-0.9 0.8 0 1.6 0.3 2.1 0.9 0.6 0.5 0.9 1.3 0.9 2.1 0 0.8-0.3 1.6-0.9 2.1-0.5 0.6-1.3 0.9-2.1 0.9-0.8 0-1.6-0.3-2.1-0.9zm2.1 1.9c-5 0-6 3-6 4 0 1 1 1 1 1h10c0 0 1 0 1-1 0-1-1-4-6-4z"/>
	<path id="Layer" fill-rule="evenodd" class="s0" d="m14.7 4.8c0.4 0.1 0.9 0.2 1.2 0.4q0.1 0 0.1 0 0 0.1 0 0.1v3.5q0 0.1-0.1 0.1-0.1 0-0.1 0c-0.3-0.1-0.7-0.3-1.2-0.3-0.4-0.1-0.8 0-1 0.3q-0.1 0-0.1 0 0 0-0.1 0c-0.2-0.3-0.6-0.4-1-0.3-0.5 0-0.9 0.2-1.2 0.3q0 0-0.1 0-0.1 0-0.1-0.1c0 0 0-3.5 0-3.6q0 0 0.1 0c0.3-0.2 0.8-0.3 1.2-0.4 0.4 0 0.9 0 1.2 0.3 0.3-0.3 0.8-0.3 1.2-0.3zm-1 3.6c0.2-0.1 0.6-0.2 1-0.1 0.3 0 0.7 0.1 1 0.2v-3.1c-0.3-0.1-0.7-0.2-1.1-0.3q-0.6 0-0.9 0.3zm-2.4 0.1c0.3-0.1 0.7-0.2 1-0.3 0.4 0 0.8 0 1 0.2v-3.1c-0.2-0.2-0.5-0.2-0.9-0.2-0.4 0-0.8 0.2-1.1 0.3z"/>
</svg>