<svg version="1.2" xmlns="http://www.w3.org/2000/svg" viewBox="0 0 16 16" width="16" height="16">
	<title>person-circle-svg</title>
	<style>
		.s0 { fill: #ffffff } 
	</style>
	<path id="Layer" fill-rule="evenodd" class="s0" d="m5.9 7.1c-0.6-0.5-0.9-1.3-0.9-2.1c0-0.8 0.3-1.6 0.9-2.1c0.5-0.6 1.3-0.9 2.1-0.9c0.8 0 1.6 0.3 2.1 0.9c0.6 0.5 0.9 1.3 0.9 2.1c0 0.8-0.3 1.6-0.9 2.1c-0.5 0.6-1.3 0.9-2.1 0.9c-0.8 0-1.6-0.3-2.1-0.9zm2.1 1.9c-5 0-5.9 3-6 4c0.9 0.6 2 1.3 2 1.3l2.2 0.9l1.8 0.3l1.2-0.2l1.7-0.4l1.3-0.7c0 0 0.9-0.6 1.8-1.2c0-1-1-4-6-4z" />
	<path id="Shape 1" fill-rule="evenodd" class="s0" d="m8 16c-4.4 0-8-3.6-8-8c0-4.4 3.6-8 8-8c4.4 0 8 3.6 8 8c0 4.4-3.6 8-8 8zm7-8c0-3.9-3.1-7-7-7c-3.9 0-7 3.1-7 7c0 3.9 3.1 7 7 7c3.9 0 7-3.1 7-7z" />
</svg>