<svg version="1.2" xmlns="http://www.w3.org/2000/svg" viewBox="0 0 16 16" width="16" height="16">
	<title>person-plus-svg</title>
	<style>
		.s0 { fill: #ffffff } 
	</style>
	<path id="Layer" fill-rule="evenodd" class="s0" d="m3.9 7.1c-0.6-0.5-0.9-1.3-0.9-2.1c0-0.8 0.3-1.6 0.9-2.1c0.5-0.6 1.3-0.9 2.1-0.9c0.8 0 1.6 0.3 2.1 0.9c0.6 0.5 0.9 1.3 0.9 2.1c0 0.8-0.3 1.6-0.9 2.1c-0.5 0.6-1.3 0.9-2.1 0.9c-0.8 0-1.6-0.3-2.1-0.9zm3.5-3.5c-0.4-0.4-0.9-0.6-1.4-0.6c-0.5 0-1 0.2-1.4 0.6c-0.4 0.4-0.6 0.9-0.6 1.4c0 0.5 0.2 1 0.6 1.4c0.4 0.4 0.9 0.6 1.4 0.6c0.5 0 1-0.2 1.4-0.6c0.4-0.4 0.6-0.9 0.6-1.4c0-0.5-0.2-1-0.6-1.4zm4.6 9.4c0 1-1 1-1 1h-10c0 0-1 0-1-1c0-1 1-4 6-4c5 0 6 3 6 4zm-1 0c0-0.2-0.2-1-0.8-1.7c-0.7-0.6-1.9-1.3-4.2-1.3c-2.3 0-3.5 0.7-4.2 1.3c-0.6 0.7-0.8 1.5-0.8 1.7z" />
	<path id="Layer" fill-rule="evenodd" class="s0" d="m13.5 5q0.1 0 0.2 0q0.1 0.1 0.2 0.1q0 0.1 0.1 0.2q0 0.1 0 0.2v1.5h1.5q0.2 0 0.4 0.1q0.1 0.2 0.1 0.4q0 0.2-0.1 0.4q-0.2 0.1-0.4 0.1h-1.5v1.5q0 0.2-0.1 0.4q-0.2 0.1-0.4 0.1q-0.2 0-0.4-0.1q-0.1-0.2-0.1-0.4v-1.5h-1.5q-0.2 0-0.4-0.1q-0.1-0.2-0.1-0.4q0-0.2 0.1-0.4q0.2-0.1 0.4-0.1h1.5v-1.5q0-0.1 0-0.2q0.1-0.1 0.1-0.2q0.1 0 0.2-0.1q0.1 0 0.2 0z" />
</svg>